SplineFontDB: 3.0
FontName: essio
FullName: Essiah
FamilyName: essio
Weight: Book
Copyright: Copyright (c) 2016, ecssiah
Version: 001.000
ItalicAngle: 0
UnderlinePosition: -912
UnderlineWidth: 102
Ascent: 1638
Descent: 410
InvalidEm: 0
sfntRevision: 0x00010000
LayerCount: 2
Layer: 0 1 "Back" 1
Layer: 1 1 "Fore" 0
XUID: [1021 106 741798547 14171447]
StyleMap: 0x0000
FSType: 0
OS2Version: 4
OS2_WeightWidthSlopeOnly: 0
OS2_UseTypoMetrics: 1
CreationTime: 1457670383
ModificationTime: 1458678581
PfmFamily: 17
TTFWeight: 400
TTFWidth: 5
LineGap: 184
VLineGap: 0
Panose: 2 0 5 3 0 0 0 0 0 0
OS2TypoAscent: 1638
OS2TypoAOffset: 0
OS2TypoDescent: -410
OS2TypoDOffset: 0
OS2TypoLinegap: 184
OS2WinAscent: 1364
OS2WinAOffset: 0
OS2WinDescent: 0
OS2WinDOffset: 0
HheadAscent: 1364
HheadAOffset: 0
HheadDescent: 0
HheadDOffset: 0
OS2SubXSize: 1330
OS2SubYSize: 1432
OS2SubXOff: 0
OS2SubYOff: 286
OS2SupXSize: 1330
OS2SupYSize: 1432
OS2SupXOff: 0
OS2SupYOff: 982
OS2StrikeYSize: 102
OS2StrikeYPos: 530
OS2CapHeight: 614
OS2XHeight: 614
OS2Vendor: 'PfEd'
OS2CodePages: 00000001.00000000
OS2UnicodeRanges: 00000001.00000000.00000000.00000000
MarkAttachClasses: 1
DEI: 91125
ShortTable: cvt  2
  34
  648
EndShort
ShortTable: maxp 16
  1
  0
  67
  62
  2
  0
  0
  2
  0
  1
  1
  0
  64
  0
  0
  0
EndShort
LangName: 1033 "" "" "Regular" "FontForge 2.0 : Essiah : 16-3-2016"
GaspTable: 1 65535 2 0
Encoding: UnicodeBmp
UnicodeInterp: none
NameList: AGL For New Fonts
DisplaySize: -48
AntiAlias: 1
FitToEm: 0
WinInfo: 18 18 7
BeginChars: 65539 64

StartChar: exclam
Encoding: 33 33 4
Width: 452
GlyphClass: 2
Flags: W
HStem: 0 202<136.053 315.947>
VStem: 124 204<12.0527 190.184 328 1008>
LayerCount: 2
Fore
SplineSet
226 0 m 128,-1,1
 124 0 124 0 124 102 c 3,2,3
 124 202 124 202 226 202 c 128,-1,4
 328 202 328 202 328 102 c 0,5,0
 328 0 328 0 226 0 c 128,-1,1
328 1008 m 1,6,-1
 328 328 l 1,7,-1
 124 328 l 1,8,-1
 124 1008 l 1,9,-1
 328 1008 l 1,6,-1
EndSplineSet
Validated: 1
EndChar

StartChar: quotesingle
Encoding: 39 39 5
Width: 382
GlyphClass: 2
Flags: W
HStem: 944 324<89 293>
VStem: 89 204<944 1268>
LayerCount: 2
Fore
SplineSet
293 944 m 5,0,-1
 89 944 l 5,1,-1
 89 1268 l 5,2,-1
 293 1268 l 5,3,-1
 293 944 l 5,0,-1
EndSplineSet
Validated: 1
EndChar

StartChar: parenleft
Encoding: 40 40 6
Width: 586
GlyphClass: 2
Flags: W
HStem: 0 21G<182 516> 0 21G<182 516>
VStem: 70 202<388.923 921.217>
LayerCount: 2
Fore
SplineSet
272 655 m 7,0,1
 272 346 272 346 516 0 c 5,2,-1
 294 0 l 5,3,4
 70 333 70 333 70 651 c 7,5,6
 70 946 70 946 292 1308 c 5,7,-1
 516 1308 l 5,8,9
 272 961 272 961 272 655 c 7,0,1
EndSplineSet
Validated: 1
EndChar

StartChar: parenright
Encoding: 41 41 7
Width: 586
GlyphClass: 2
Flags: W
HStem: 0 21G<70 404> 0 21G<70 404>
VStem: 314 202<388.923 921.217>
LayerCount: 2
Fore
SplineSet
314 655 m 3,0,1
 314 961 314 961 70 1308 c 1,2,-1
 294 1308 l 1,3,4
 516 946 516 946 516 651 c 3,5,6
 516 333 516 333 292 0 c 1,7,-1
 70 0 l 1,8,9
 314 346 314 346 314 655 c 3,0,1
EndSplineSet
Validated: 1
EndChar

StartChar: plus
Encoding: 43 43 8
Width: 1209
GlyphClass: 2
Flags: W
HStem: 512 204<72 502 704 1136>
VStem: 502 202<82 512 716 1146>
LayerCount: 2
Fore
SplineSet
704 716 m 5,0,-1
 1136 716 l 5,1,-1
 1136 512 l 5,2,-1
 704 512 l 5,3,-1
 704 82 l 5,4,-1
 502 82 l 5,5,-1
 502 512 l 5,6,-1
 72 512 l 5,7,-1
 72 716 l 5,8,-1
 502 716 l 5,9,-1
 502 1146 l 5,10,-1
 704 1146 l 5,11,-1
 704 716 l 5,0,-1
EndSplineSet
Validated: 1
EndChar

StartChar: comma
Encoding: 44 44 9
Width: 382
GlyphClass: 2
Flags: W
HStem: 0 324<89 293>
VStem: 89 204<0 324>
LayerCount: 2
Fore
SplineSet
293 0 m 5,0,-1
 89 0 l 5,1,-1
 89 324 l 5,2,-1
 293 324 l 5,3,-1
 293 0 l 5,0,-1
EndSplineSet
Validated: 1
EndChar

StartChar: hyphen
Encoding: 45 45 10
Width: 980
GlyphClass: 2
Flags: W
HStem: 512 204<102 878>
LayerCount: 2
Fore
SplineSet
102 716 m 5,0,-1
 878 716 l 5,1,-1
 878 512 l 5,2,-1
 102 512 l 5,3,-1
 102 716 l 5,0,-1
EndSplineSet
Validated: 1
EndChar

StartChar: period
Encoding: 46 46 11
Width: 372
GlyphClass: 2
Flags: W
HStem: 512 204<97.1733 275.947>
VStem: 84 204<524.601 703.593>
LayerCount: 2
Fore
SplineSet
186 512 m 0,0,1
 84 514 84 514 84 611 c 0,2,3
 84 716 84 716 186 716 c 128,-1,4
 288 716 288 716 288 614 c 128,-1,5
 288 512 288 512 186 512 c 0,0,1
EndSplineSet
Validated: 1
EndChar

StartChar: slash
Encoding: 47 47 12
Width: 775
GlyphClass: 2
Flags: W
HStem: 0 348
VStem: 97 581
LayerCount: 2
Fore
SplineSet
678 348 m 1,0,-1
 386 0 l 1,1,-1
 97 348 l 1,2,-1
 323 348 l 1,3,-1
 386 272 l 1,4,-1
 449 348 l 1,5,-1
 678 348 l 1,0,-1
EndSplineSet
Validated: 1
EndChar

StartChar: zero
Encoding: 48 48 13
Width: 1405
GlyphClass: 2
Flags: W
HStem: 2 162<507.284 899.365> 1064 162<508.166 900.064>
VStem: 80 180<413.276 815.569> 1144 182<412.669 814.312>
LayerCount: 2
Fore
SplineSet
1026 300 m 1,0,1
 1144 436 1144 436 1144 614 c 3,2,3
 1144 805 1144 805 1016 937 c 1,4,5
 884 1064 884 1064 704 1064 c 3,6,7
 512 1064 512 1064 380 928 c 1,8,9
 260 793 260 793 260 614 c 3,10,11
 260 422 260 422 390 290 c 1,12,13
 526 164 526 164 704 164 c 3,14,15
 896 164 896 164 1026 300 c 1,0,1
250 181 m 1,16,17
 80 363 80 363 80 614 c 3,18,19
 80 868 80 868 252 1049 c 1,20,21
 440 1226 440 1226 704 1226 c 3,22,23
 970 1226 970 1226 1154 1047 c 1,24,25
 1326 865 1326 865 1326 614 c 3,26,27
 1326 360 1326 360 1154 179 c 1,28,29
 968 2 968 2 704 2 c 3,30,31
 436 2 436 2 250 181 c 1,16,17
EndSplineSet
Validated: 1
EndChar

StartChar: one
Encoding: 49 49 14
Width: 347
GlyphClass: 2
Flags: W
HStem: 0 21G<72 276> 0 21G<72 276> 1208 20G<72 276> 1208 20G<72 276>
VStem: 72 204<0 1228>
LayerCount: 2
Fore
SplineSet
72 1228 m 5,0,-1
 276 1228 l 5,1,-1
 276 0 l 5,2,-1
 72 0 l 5,3,-1
 72 1228 l 5,0,-1
EndSplineSet
Validated: 1
EndChar

StartChar: two
Encoding: 50 50 15
Width: 1428
GlyphClass: 2
Flags: W
HStem: 0 21G<44 327.492> 0 21G<44 327.492> 1208 20G<1122.15 1384> 1208 20G<1122.15 1384>
LayerCount: 2
Fore
SplineSet
310 0 m 1,0,-1
 44 0 l 1,1,-1
 1140 1228 l 1,2,-1
 1384 1228 l 1,3,-1
 310 0 l 1,0,-1
EndSplineSet
Validated: 1
EndChar

StartChar: three
Encoding: 51 51 16
Width: 1408
GlyphClass: 2
Flags: W
HStem: 0 21G<1090.51 1374> 0 21G<1090.51 1374> 1208 20G<34 295.85> 1208 20G<34 295.85>
LayerCount: 2
Fore
SplineSet
1108 0 m 1,0,-1
 34 1228 l 1,1,-1
 278 1228 l 1,2,-1
 1374 0 l 1,3,-1
 1108 0 l 1,0,-1
EndSplineSet
Validated: 1
EndChar

StartChar: four
Encoding: 52 52 17
Width: 1373
GlyphClass: 2
Flags: W
HStem: 0 211<499.814 872.435> 1208 20G<62 278 1086 1312> 1208 20G<62 278 1086 1312>
VStem: 62 216<406.907 1228> 1090 222<419.293 1228>
LayerCount: 2
Fore
SplineSet
986 338 m 16,0,1
 1090 439 1090 439 1090 604 c 0,2,3
 1090 607 1090 607 1090 610 c 2,4,-1
 1086 1228 l 1,5,-1
 1312 1228 l 1,6,-1
 1312 610 l 2,7,8
 1312 349 1312 349 1131 174.5 c 152,-1,9
 950 0 950 0 682 0 c 131,-1,10
 414 0 414 0 238 176 c 152,-1,11
 62 352 62 352 62 610 c 2,12,-1
 62 1228 l 1,13,-1
 278 1228 l 1,14,-1
 278 594 l 2,15,16
 278 426 278 426 380 335 c 0,17,18
 520 211 520 211 688 211 c 139,-1,19
 856 211 856 211 986 338 c 16,0,1
EndSplineSet
Validated: 1
EndChar

StartChar: five
Encoding: 53 53 18
Width: 1231
GlyphClass: 2
Flags: W
HStem: 0 194<177.808 648.955> 1038 190<168.195 646.202>
VStem: 906 206<435.326 804.781>
LayerCount: 2
Fore
SplineSet
908 1042 m 0,0,1
 1112 854 1112 854 1112 643 c 3,2,3
 1112 348 1112 348 902 164 c 0,4,5
 716 0 716 0 422 0 c 3,6,7
 262 0 262 0 118 49 c 1,8,-1
 118 263 l 1,9,10
 266 194 266 194 422 194 c 3,11,12
 628 194 628 194 764 310 c 0,13,14
 906 431 906 431 906 643 c 3,15,16
 906 794 906 794 778 908 c 0,17,18
 634 1038 634 1038 422 1038 c 3,19,20
 254 1038 254 1038 118 972 c 1,21,-1
 118 1181 l 1,22,23
 256 1228 256 1228 422 1228 c 3,24,25
 708 1228 708 1228 908 1042 c 0,0,1
EndSplineSet
Validated: 1
EndChar

StartChar: six
Encoding: 54 54 19
Width: 1395
GlyphClass: 2
Flags: W
HStem: 0 21G<72 288 1096 1322> 0 21G<72 288 1096 1322> 1017 211<509.814 882.435>
VStem: 72 216<0 821.093> 1100 222<0 808.707>
LayerCount: 2
Fore
SplineSet
996 890 m 8,0,1
 866 1017 866 1017 698 1017 c 147,-1,2
 530 1017 530 1017 390 893 c 0,3,4
 288 802 288 802 288 634 c 2,5,-1
 288 0 l 1,6,-1
 72 0 l 1,7,-1
 72 618 l 2,8,9
 72 876 72 876 248 1052 c 152,-1,10
 424 1228 424 1228 692 1228 c 131,-1,11
 960 1228 960 1228 1141 1053.5 c 152,-1,12
 1322 879 1322 879 1322 618 c 2,13,-1
 1322 0 l 1,14,-1
 1096 0 l 1,15,-1
 1100 618 l 2,16,17
 1100 621 1100 621 1100 624 c 0,18,19
 1100 789 1100 789 996 890 c 8,0,1
EndSplineSet
Validated: 1
EndChar

StartChar: seven
Encoding: 55 55 20
Width: 1231
GlyphClass: 2
Flags: W
HStem: 0 190<583.798 1061.81> 1034 194<581.045 1052.19>
VStem: 118 206<423.219 792.674>
LayerCount: 2
Fore
SplineSet
322 186 m 0,0,1
 118 374 118 374 118 585 c 3,2,3
 118 880 118 880 328 1064 c 0,4,5
 514 1228 514 1228 808 1228 c 3,6,7
 968 1228 968 1228 1112 1179 c 1,8,-1
 1112 965 l 1,9,10
 964 1034 964 1034 808 1034 c 3,11,12
 602 1034 602 1034 466 918 c 0,13,14
 324 797 324 797 324 585 c 3,15,16
 324 434 324 434 452 320 c 0,17,18
 596 190 596 190 808 190 c 3,19,20
 976 190 976 190 1112 256 c 1,21,-1
 1112 47 l 1,22,23
 974 0 974 0 808 0 c 3,24,25
 522 0 522 0 322 186 c 0,0,1
EndSplineSet
Validated: 1
EndChar

StartChar: eight
Encoding: 56 56 21
Width: 885
GlyphClass: 2
Flags: W
HStem: 0 21G<66 270> 0 21G<66 270> 520 200<270 571.781> 1026 200<66 581.236>
VStem: 66 204<0 520> 620 200<762.042 987.458>
LayerCount: 2
Fore
SplineSet
444 1026 m 2,0,-1
 66 1026 l 1,1,-1
 66 1226 l 1,2,-1
 444 1226 l 2,3,4
 820 1226 820 1226 820 873 c 128,-1,5
 820 520 820 520 444 520 c 2,6,-1
 270 520 l 1,7,-1
 270 0 l 1,8,-1
 66 0 l 1,9,-1
 66 720 l 1,10,-1
 444 720 l 1,11,12
 620 721 620 721 620 886 c 3,13,14
 620 1026 620 1026 444 1026 c 2,0,-1
EndSplineSet
Validated: 1
EndChar

StartChar: nine
Encoding: 57 57 22
Width: 1459
GlyphClass: 2
Flags: W
HStem: 0 21G<12 263.825 1196.18 1446> 0 21G<12 263.825 1196.18 1446> 1208 20G<623.87 834.13> 1208 20G<623.87 834.13>
LayerCount: 2
Fore
SplineSet
12 0 m 1,0,-1
 634 1228 l 1,1,-1
 824 1228 l 1,2,-1
 1446 0 l 1,3,-1
 1206 0 l 1,4,-1
 730 969 l 1,5,-1
 254 0 l 1,6,-1
 12 0 l 1,0,-1
EndSplineSet
Validated: 1
EndChar

StartChar: colon
Encoding: 58 58 23
Width: 459
GlyphClass: 2
Flags: W
HStem: 390 202<140.053 319.947> 636 202<140.053 319.947>
VStem: 128 204<403.173 580.184 648.601 825.829>
LayerCount: 2
Fore
SplineSet
230 390 m 4,0,1
 128 392 128 392 128 492 c 132,-1,2
 128 592 128 592 230 592 c 132,-1,3
 332 592 332 592 332 492 c 4,4,5
 332 390 332 390 234 390 c 4,6,7
 232 390 232 390 230 390 c 4,0,1
230 636 m 4,8,9
 128 638 128 638 128 735 c 4,10,11
 128 838 128 838 230 838 c 132,-1,12
 332 838 332 838 332 738 c 4,13,14
 332 636 332 636 230 636 c 4,8,9
EndSplineSet
Validated: 1
EndChar

StartChar: semicolon
Encoding: 59 59 24
Width: 454
GlyphClass: 2
Flags: W
HStem: 0 202<137.053 316.947>
VStem: 125 204<13.1733 190.184>
LayerCount: 2
Fore
SplineSet
227 0 m 0,0,1
 125 2 125 2 125 102 c 128,-1,2
 125 202 125 202 227 202 c 128,-1,3
 329 202 329 202 329 102 c 0,4,5
 329 0 329 0 231 0 c 0,6,7
 229 0 229 0 227 0 c 0,0,1
EndSplineSet
Validated: 1
EndChar

StartChar: less
Encoding: 60 60 25
Width: 1151
GlyphClass: 2
Flags: W
HStem: 0 182<354 854>
VStem: 854 183<182 696>
LayerCount: 2
Fore
SplineSet
854 696 m 1,0,-1
 354 182 l 1,1,-1
 854 182 l 1,2,-1
 854 696 l 1,0,-1
1037 0 m 1,3,-1
 114 0 l 1,4,-1
 114 182 l 1,5,-1
 854 962 l 1,6,-1
 1037 962 l 1,7,-1
 1037 0 l 1,3,-1
EndSplineSet
Validated: 1
EndChar

StartChar: equal
Encoding: 61 61 26
Width: 847
GlyphClass: 2
Flags: W
HStem: 390 202<36 812> 636 202<36 812>
LayerCount: 2
Fore
SplineSet
36 592 m 1,0,-1
 812 592 l 1,1,-1
 812 390 l 1,2,-1
 36 390 l 1,3,-1
 36 592 l 1,0,-1
36 838 m 1,4,-1
 812 838 l 1,5,-1
 812 636 l 1,6,-1
 36 636 l 1,7,-1
 36 838 l 1,4,-1
EndSplineSet
Validated: 1
EndChar

StartChar: greater
Encoding: 62 62 27
Width: 1151
GlyphClass: 2
Flags: W
HStem: 0 182<296 798>
VStem: 114 182<182 696>
LayerCount: 2
Fore
SplineSet
296 696 m 1,0,-1
 296 182 l 1,1,-1
 798 182 l 1,2,-1
 296 696 l 1,0,-1
114 0 m 5,3,-1
 114 962 l 5,4,-1
 296 962 l 5,5,-1
 1038 182 l 5,6,-1
 1038 0 l 5,7,-1
 114 0 l 5,3,-1
EndSplineSet
Validated: 1
EndChar

StartChar: question
Encoding: 63 63 28
Width: 428
GlyphClass: 2
Flags: W
HStem: 0 21G<112 316> 0 21G<112 316> 806 202<124.053 303.947>
VStem: 112 204<0 680 817.816 995.947>
LayerCount: 2
Fore
SplineSet
214 1008 m 128,-1,1
 316 1008 316 1008 316 906 c 4,2,3
 316 806 316 806 214 806 c 132,-1,4
 112 806 112 806 112 906 c 7,5,0
 112 1008 112 1008 214 1008 c 128,-1,1
316 0 m 5,6,-1
 112 0 l 5,7,-1
 112 680 l 5,8,-1
 316 680 l 5,9,-1
 316 0 l 5,6,-1
EndSplineSet
Validated: 1
EndChar

StartChar: A
Encoding: 65 65 29
Width: 1678
GlyphClass: 2
Flags: W
HStem: 0 21G<13 296.492 325 608.492> 0 21G<13 296.492 325 608.492> 1208 20G<1091.15 1353 1403.15 1665> 1208 20G<1091.15 1353 1403.15 1665>
LayerCount: 2
Fore
SplineSet
591 0 m 5,0,-1
 325 0 l 5,1,-1
 1421 1228 l 5,2,-1
 1665 1228 l 5,3,-1
 591 0 l 5,0,-1
279 0 m 5,4,-1
 13 0 l 5,5,-1
 1109 1228 l 5,6,-1
 1353 1228 l 5,7,-1
 279 0 l 5,4,-1
EndSplineSet
Validated: 1
EndChar

StartChar: E
Encoding: 69 69 30
Width: 1678
GlyphClass: 2
Flags: W
HStem: 0 21G<1069.51 1353 1381.51 1665> 0 21G<1069.51 1353 1381.51 1665> 1208 20G<13 274.85 325 586.85> 1208 20G<13 274.85 325 586.85>
LayerCount: 2
Fore
SplineSet
1087 0 m 1,0,-1
 13 1228 l 1,1,-1
 257 1228 l 1,2,-1
 1353 0 l 1,3,-1
 1087 0 l 1,0,-1
1399 0 m 1,4,-1
 325 1228 l 1,5,-1
 569 1228 l 1,6,-1
 1665 0 l 1,7,-1
 1399 0 l 1,4,-1
EndSplineSet
Validated: 1
EndChar

StartChar: I
Encoding: 73 73 31
Width: 575
GlyphClass: 2
Flags: W
HStem: 0 21G<54 258 318 522> 0 21G<54 258 318 522> 1208 20G<54 258 318 522> 1208 20G<54 258 318 522>
VStem: 54 204<0 1228> 318 204<0 1228>
LayerCount: 2
Fore
SplineSet
318 1228 m 5,0,-1
 522 1228 l 5,1,-1
 522 0 l 5,2,-1
 318 0 l 5,3,-1
 318 1228 l 5,0,-1
54 1228 m 5,4,-1
 258 1228 l 5,5,-1
 258 0 l 5,6,-1
 54 0 l 5,7,-1
 54 1228 l 5,4,-1
EndSplineSet
Validated: 1
EndChar

StartChar: N
Encoding: 78 78 32
Width: 1003
GlyphClass: 2
Flags: W
HStem: 0 21G<746 948> 0 21G<746 948> 504 220<56 746> 1208 20G<746 948> 1208 20G<746 948>
VStem: 746 202<0 504 724 1228>
LayerCount: 2
Fore
SplineSet
56 724 m 1,0,-1
 746 724 l 1,1,-1
 746 1228 l 1,2,-1
 948 1228 l 1,3,-1
 948 0 l 1,4,-1
 746 0 l 1,5,-1
 746 504 l 1,6,-1
 56 504 l 1,7,-1
 56 724 l 1,0,-1
EndSplineSet
Validated: 1
EndChar

StartChar: Z
Encoding: 90 90 33
Width: 1407
GlyphClass: 2
Flags: W
HStem: 0 21G<1102.31 1373> 0 21G<1102.31 1373> 1208 20G<34 304.911 1103.09 1373> 1208 20G<34 304.911 1103.09 1373>
LayerCount: 2
Fore
SplineSet
1373 1228 m 5,0,-1
 840 614 l 5,1,-1
 1373 0 l 5,2,-1
 1120 0 l 5,3,-1
 34 1228 l 5,4,-1
 288 1228 l 5,5,-1
 704 736 l 5,6,-1
 1120 1228 l 5,7,-1
 1373 1228 l 5,0,-1
EndSplineSet
Validated: 1
EndChar

StartChar: bracketleft
Encoding: 91 91 34
Width: 475
GlyphClass: 2
Flags: W
HStem: 0 202<268 410> 1106 202<268 410>
VStem: 64 346<0 202 1106 1308> 64 204<202 1106>
LayerCount: 2
Fore
SplineSet
268 1106 m 1,0,-1
 268 202 l 1,1,-1
 410 202 l 1,2,-1
 410 0 l 1,3,-1
 64 0 l 1,4,-1
 64 1308 l 1,5,-1
 410 1308 l 1,6,-1
 410 1106 l 1,7,-1
 268 1106 l 1,0,-1
EndSplineSet
Validated: 1
EndChar

StartChar: bracketright
Encoding: 93 93 35
Width: 467
GlyphClass: 2
Flags: W
HStem: 0 202<60 202> 1106 202<60 202>
VStem: 60 346<0 202 1106 1308> 202 204<202 1106>
LayerCount: 2
Fore
SplineSet
202 1106 m 1,0,-1
 60 1106 l 1,1,-1
 60 1308 l 1,2,-1
 406 1308 l 1,3,-1
 406 0 l 1,4,-1
 60 0 l 1,5,-1
 60 202 l 1,6,-1
 202 202 l 1,7,-1
 202 1106 l 1,0,-1
EndSplineSet
Validated: 1
EndChar

StartChar: asciicircum
Encoding: 94 94 36
Width: 785
GlyphClass: 2
Flags: W
HStem: 944 346
VStem: 102 582
LayerCount: 2
Fore
SplineSet
684 944 m 1,0,-1
 454 944 l 1,1,-1
 392 1020 l 1,2,-1
 328 944 l 1,3,-1
 102 944 l 1,4,-1
 390 1290 l 1,5,-1
 684 944 l 1,0,-1
EndSplineSet
Validated: 1
EndChar

StartChar: a
Encoding: 97 97 37
Width: 1428
GlyphClass: 2
Flags: W
HStem: 0 21G<44 327.492> 0 21G<44 327.492> 1208 20G<1122.15 1384> 1208 20G<1122.15 1384>
LayerCount: 2
Fore
SplineSet
310 0 m 1,0,-1
 44 0 l 1,1,-1
 1140 1228 l 1,2,-1
 1384 1228 l 1,3,-1
 310 0 l 1,0,-1
EndSplineSet
Validated: 1
EndChar

StartChar: b
Encoding: 98 98 38
Width: 1570
GlyphClass: 2
Flags: W
HStem: 0 21G<90 142.256> 0 21G<90 142.256> 1206 20G<90 142.256>
LayerCount: 2
Fore
SplineSet
90 1226 m 5,0,-1
 1480 694 l 5,1,-1
 1480 532 l 5,2,-1
 90 0 l 5,3,-1
 90 221 l 5,4,-1
 1127 613 l 5,5,-1
 90 1007 l 5,6,-1
 90 1226 l 5,0,-1
EndSplineSet
Validated: 1
EndChar

StartChar: c
Encoding: 99 99 39
Width: 1231
GlyphClass: 2
Flags: W
HStem: 0 190<583.798 1061.81> 1034 194<581.045 1052.19>
VStem: 118 206<423.219 792.674>
LayerCount: 2
Fore
SplineSet
322 186 m 0,0,1
 118 374 118 374 118 585 c 3,2,3
 118 880 118 880 328 1064 c 0,4,5
 514 1228 514 1228 808 1228 c 3,6,7
 968 1228 968 1228 1112 1179 c 1,8,-1
 1112 965 l 1,9,10
 964 1034 964 1034 808 1034 c 3,11,12
 602 1034 602 1034 466 918 c 0,13,14
 324 797 324 797 324 585 c 3,15,16
 324 434 324 434 452 320 c 0,17,18
 596 190 596 190 808 190 c 3,19,20
 976 190 976 190 1112 256 c 1,21,-1
 1112 47 l 1,22,23
 974 0 974 0 808 0 c 3,24,25
 522 0 522 0 322 186 c 0,0,1
EndSplineSet
Validated: 1
EndChar

StartChar: d
Encoding: 100 100 40
Width: 1218
GlyphClass: 2
Flags: W
HStem: 0 21G<940 1144> 0 21G<940 1144> 1026 202<74 940>
VStem: 940 204<0 1026>
LayerCount: 2
Fore
SplineSet
74 1228 m 1,0,-1
 1144 1228 l 1,1,-1
 1144 0 l 1,2,-1
 940 0 l 1,3,-1
 940 1026 l 1,4,-1
 74 1026 l 1,5,-1
 74 1228 l 1,0,-1
EndSplineSet
Validated: 1
EndChar

StartChar: e
Encoding: 101 101 41
Width: 1408
GlyphClass: 2
Flags: W
HStem: 0 21G<1090.51 1374> 0 21G<1090.51 1374> 1208 20G<34 295.85> 1208 20G<34 295.85>
LayerCount: 2
Fore
SplineSet
1108 0 m 1,0,-1
 34 1228 l 1,1,-1
 278 1228 l 1,2,-1
 1374 0 l 1,3,-1
 1108 0 l 1,0,-1
EndSplineSet
Validated: 1
EndChar

StartChar: f
Encoding: 102 102 42
Width: 1038
GlyphClass: 2
Flags: W
HStem: 0 21G<73 275> 0 21G<73 275> 504 220<275 965> 1208 20G<73 275> 1208 20G<73 275>
VStem: 73 202<0 504 724 1228>
LayerCount: 2
Fore
SplineSet
965 724 m 1,0,-1
 965 504 l 1,1,-1
 275 504 l 1,2,-1
 275 0 l 1,3,-1
 73 0 l 1,4,-1
 73 1228 l 1,5,-1
 275 1228 l 1,6,-1
 275 724 l 1,7,-1
 965 724 l 1,0,-1
EndSplineSet
Validated: 1
EndChar

StartChar: g
Encoding: 103 103 43
Width: 1407
GlyphClass: 2
Flags: W
HStem: 0 21G<34 303.911 1102.09 1373> 0 21G<34 303.911 1102.09 1373> 1208 20G<34 304.687> 1208 20G<34 304.687>
LayerCount: 2
Fore
SplineSet
34 0 m 1,0,-1
 567 614 l 1,1,-1
 34 1228 l 1,2,-1
 287 1228 l 1,3,-1
 1373 0 l 1,4,-1
 1119 0 l 1,5,-1
 703 492 l 1,6,-1
 287 0 l 1,7,-1
 34 0 l 1,0,-1
EndSplineSet
Validated: 1
EndChar

StartChar: h
Encoding: 104 104 44
Width: 1407
GlyphClass: 2
Flags: W
HStem: 0 21G<34 304.911 1103.09 1373> 0 21G<34 304.911 1103.09 1373> 1208 20G<1102.31 1373> 1208 20G<1102.31 1373>
LayerCount: 2
Fore
SplineSet
1373 0 m 1,0,-1
 1120 0 l 1,1,-1
 704 492 l 1,2,-1
 288 0 l 1,3,-1
 34 0 l 1,4,-1
 1120 1228 l 1,5,-1
 1373 1228 l 1,6,-1
 840 614 l 1,7,-1
 1373 0 l 1,0,-1
EndSplineSet
Validated: 1
EndChar

StartChar: i
Encoding: 105 105 45
Width: 347
GlyphClass: 2
Flags: W
HStem: 0 21G<72 276> 0 21G<72 276> 1208 20G<72 276> 1208 20G<72 276>
VStem: 72 204<0 1228>
LayerCount: 2
Fore
SplineSet
72 1228 m 5,0,-1
 276 1228 l 5,1,-1
 276 0 l 5,2,-1
 72 0 l 5,3,-1
 72 1228 l 5,0,-1
EndSplineSet
Validated: 1
EndChar

StartChar: j
Encoding: 106 106 46
Width: 1216
GlyphClass: 2
Flags: W
HStem: 0 202<73 939> 1208 20G<939 1143> 1208 20G<939 1143>
VStem: 939 204<202 1228>
LayerCount: 2
Fore
SplineSet
73 0 m 1,0,-1
 73 202 l 1,1,-1
 939 202 l 1,2,-1
 939 1228 l 1,3,-1
 1143 1228 l 1,4,-1
 1143 0 l 1,5,-1
 73 0 l 1,0,-1
EndSplineSet
Validated: 1
EndChar

StartChar: l
Encoding: 108 108 47
Width: 1210
GlyphClass: 2
Flags: W
HStem: 0 202<274 1140> 1208 20G<70 274> 1208 20G<70 274>
VStem: 70 204<202 1228>
LayerCount: 2
Fore
SplineSet
1140 0 m 1,0,-1
 70 0 l 1,1,-1
 70 1228 l 1,2,-1
 274 1228 l 1,3,-1
 274 202 l 1,4,-1
 1140 202 l 1,5,-1
 1140 0 l 1,0,-1
EndSplineSet
Validated: 1
EndChar

StartChar: m
Encoding: 109 109 48
Width: 1459
GlyphClass: 2
Flags: W
HStem: 0 21G<12 263.825 1196.18 1446> 0 21G<12 263.825 1196.18 1446> 1208 20G<623.87 834.13> 1208 20G<623.87 834.13>
LayerCount: 2
Fore
SplineSet
12 0 m 1,0,-1
 634 1228 l 1,1,-1
 824 1228 l 1,2,-1
 1446 0 l 1,3,-1
 1206 0 l 1,4,-1
 730 969 l 1,5,-1
 254 0 l 1,6,-1
 12 0 l 1,0,-1
EndSplineSet
Validated: 1
EndChar

StartChar: n
Encoding: 110 110 49
Width: 1395
GlyphClass: 2
Flags: W
HStem: 0 21G<72 288 1096 1322> 0 21G<72 288 1096 1322> 1017 211<509.814 882.435>
VStem: 72 216<0 821.093> 1100 222<0 808.707>
LayerCount: 2
Fore
SplineSet
996 890 m 8,0,1
 866 1017 866 1017 698 1017 c 147,-1,2
 530 1017 530 1017 390 893 c 0,3,4
 288 802 288 802 288 634 c 2,5,-1
 288 0 l 1,6,-1
 72 0 l 1,7,-1
 72 618 l 2,8,9
 72 876 72 876 248 1052 c 152,-1,10
 424 1228 424 1228 692 1228 c 131,-1,11
 960 1228 960 1228 1141 1053.5 c 152,-1,12
 1322 879 1322 879 1322 618 c 2,13,-1
 1322 0 l 1,14,-1
 1096 0 l 1,15,-1
 1100 618 l 2,16,17
 1100 621 1100 621 1100 624 c 0,18,19
 1100 789 1100 789 996 890 c 8,0,1
EndSplineSet
Validated: 1
EndChar

StartChar: o
Encoding: 111 111 50
Width: 1405
GlyphClass: 2
Flags: W
HStem: 2 162<507.284 899.365> 1064 162<508.166 900.064>
VStem: 80 180<413.276 815.569> 1144 182<412.669 814.312>
LayerCount: 2
Fore
SplineSet
1026 300 m 1,0,1
 1144 436 1144 436 1144 614 c 3,2,3
 1144 805 1144 805 1016 937 c 1,4,5
 884 1064 884 1064 704 1064 c 3,6,7
 512 1064 512 1064 380 928 c 1,8,9
 260 793 260 793 260 614 c 3,10,11
 260 422 260 422 390 290 c 1,12,13
 526 164 526 164 704 164 c 3,14,15
 896 164 896 164 1026 300 c 1,0,1
250 181 m 1,16,17
 80 363 80 363 80 614 c 3,18,19
 80 868 80 868 252 1049 c 1,20,21
 440 1226 440 1226 704 1226 c 7,22,23
 970 1226 970 1226 1154 1047 c 1,24,25
 1326 865 1326 865 1326 614 c 3,26,27
 1326 360 1326 360 1154 179 c 1,28,29
 968 2 968 2 704 2 c 3,30,31
 436 2 436 2 250 181 c 1,16,17
EndSplineSet
Validated: 1
EndChar

StartChar: p
Encoding: 112 112 51
Width: 885
GlyphClass: 2
Flags: W
HStem: 0 21G<66 270> 0 21G<66 270> 520 200<270 571.781> 1026 200<66 581.236>
VStem: 66 204<0 520> 620 200<762.042 987.458>
LayerCount: 2
Fore
SplineSet
444 1026 m 2,0,-1
 66 1026 l 1,1,-1
 66 1226 l 1,2,-1
 444 1226 l 2,3,4
 820 1226 820 1226 820 873 c 128,-1,5
 820 520 820 520 444 520 c 2,6,-1
 270 520 l 1,7,-1
 270 0 l 1,8,-1
 66 0 l 1,9,-1
 66 720 l 1,10,-1
 444 720 l 1,11,12
 620 721 620 721 620 886 c 3,13,14
 620 1026 620 1026 444 1026 c 2,0,-1
EndSplineSet
Validated: 1
EndChar

StartChar: r
Encoding: 114 114 52
Width: 1206
GlyphClass: 2
Flags: W
HStem: 0 21G<68 272> 0 21G<68 272> 1026 202<272 1138>
VStem: 68 204<0 1026>
LayerCount: 2
Fore
SplineSet
1138 1228 m 1,0,-1
 1138 1026 l 1,1,-1
 272 1026 l 1,2,-1
 272 0 l 1,3,-1
 68 0 l 1,4,-1
 68 1228 l 1,5,-1
 1138 1228 l 1,0,-1
EndSplineSet
Validated: 1
EndChar

StartChar: s
Encoding: 115 115 53
Width: 1231
GlyphClass: 2
Flags: W
HStem: 0 194<177.808 648.955> 1038 190<168.195 646.202>
VStem: 906 206<435.326 804.781>
LayerCount: 2
Fore
SplineSet
908 1042 m 0,0,1
 1112 854 1112 854 1112 643 c 3,2,3
 1112 348 1112 348 902 164 c 0,4,5
 716 0 716 0 422 0 c 3,6,7
 262 0 262 0 118 49 c 1,8,-1
 118 263 l 1,9,10
 266 194 266 194 422 194 c 3,11,12
 628 194 628 194 764 310 c 0,13,14
 906 431 906 431 906 643 c 3,15,16
 906 794 906 794 778 908 c 0,17,18
 634 1038 634 1038 422 1038 c 3,19,20
 254 1038 254 1038 118 972 c 1,21,-1
 118 1181 l 1,22,23
 256 1228 256 1228 422 1228 c 3,24,25
 708 1228 708 1228 908 1042 c 0,0,1
EndSplineSet
Validated: 1
EndChar

StartChar: t
Encoding: 116 116 54
Width: 1449
GlyphClass: 2
Flags: W
HStem: 0 21G<618 830> 0 21G<618 830> 1026 202<58 618 830 1390>
VStem: 618 212<0 1026>
LayerCount: 2
Fore
SplineSet
830 0 m 1,0,-1
 618 0 l 1,1,-1
 618 1026 l 1,2,-1
 58 1026 l 1,3,-1
 58 1228 l 1,4,-1
 1390 1228 l 1,5,-1
 1390 1026 l 1,6,-1
 830 1026 l 1,7,-1
 830 0 l 1,0,-1
EndSplineSet
Validated: 1
EndChar

StartChar: u
Encoding: 117 117 55
Width: 1373
GlyphClass: 2
Flags: W
HStem: 0 211<499.814 872.435> 1208 20G<62 278 1086 1312> 1208 20G<62 278 1086 1312>
VStem: 62 216<406.907 1228> 1090 222<419.293 1228>
LayerCount: 2
Fore
SplineSet
986 338 m 16,0,1
 1090 439 1090 439 1090 604 c 0,2,3
 1090 607 1090 607 1090 610 c 2,4,-1
 1086 1228 l 1,5,-1
 1312 1228 l 1,6,-1
 1312 610 l 2,7,8
 1312 349 1312 349 1131 174.5 c 152,-1,9
 950 0 950 0 682 0 c 131,-1,10
 414 0 414 0 238 176 c 152,-1,11
 62 352 62 352 62 610 c 2,12,-1
 62 1228 l 1,13,-1
 278 1228 l 1,14,-1
 278 594 l 2,15,16
 278 426 278 426 380 335 c 0,17,18
 520 211 520 211 688 211 c 139,-1,19
 856 211 856 211 986 338 c 16,0,1
EndSplineSet
Validated: 1
EndChar

StartChar: v
Encoding: 118 118 56
Width: 1459
GlyphClass: 2
Flags: W
HStem: 0 21G<623.87 834.13> 0 21G<623.87 834.13> 1208 20G<12 263.825 1196.18 1446> 1208 20G<12 263.825 1196.18 1446>
LayerCount: 2
Fore
SplineSet
12 1228 m 1,0,-1
 254 1228 l 1,1,-1
 730 259 l 1,2,-1
 1206 1228 l 1,3,-1
 1446 1228 l 1,4,-1
 824 0 l 1,5,-1
 634 0 l 1,6,-1
 12 1228 l 1,0,-1
EndSplineSet
Validated: 1
EndChar

StartChar: w
Encoding: 119 119 57
Width: 1438
GlyphClass: 2
Flags: W
HStem: 0 202<53 613 825 1385> 1208 20G<613 825> 1208 20G<613 825>
VStem: 613 212<202 1228>
LayerCount: 2
Fore
SplineSet
825 1228 m 1,0,-1
 825 202 l 1,1,-1
 1385 202 l 1,2,-1
 1385 0 l 1,3,-1
 53 0 l 1,4,-1
 53 202 l 1,5,-1
 613 202 l 1,6,-1
 613 1228 l 1,7,-1
 825 1228 l 1,0,-1
EndSplineSet
Validated: 1
EndChar

StartChar: x
Encoding: 120 120 58
Width: 1293
GlyphClass: 2
Flags: W
HStem: 0 162<87.9734 427.982 867.709 1192.86> 1006 195<77.3247 465.427 838.222 1207.76>
VStem: 399 187<433.012 771.65> 718 173<434.171 771.733>
LayerCount: 2
Fore
SplineSet
652 811 m 1,0,1
 586 704 586 704 586 602 c 131,-1,2
 586 500 586 500 652 392 c 1,3,4
 718 504 718 504 718 605.5 c 131,-1,5
 718 707 718 707 652 811 c 1,0,1
69 220 m 1,6,7
 137 163 137 163 283 162 c 0,8,9
 384 162 384 162 501 256 c 1,10,11
 399 384 399 384 399 585 c 131,-1,12
 399 786 399 786 519 932 c 1,13,14
 406 1006 406 1006 282 1006 c 0,15,16
 281 1006 281 1006 279 1007 c 0,17,18
 157 1007 157 1007 69 958 c 1,19,-1
 69 1152 l 1,20,21
 154 1201 154 1201 283 1201 c 3,22,23
 500 1201 500 1201 654 1080 c 1,24,25
 849 1201 849 1201 984 1201 c 131,-1,26
 1119 1201 1119 1201 1224 1152 c 1,27,-1
 1224 954 l 1,28,29
 1124 1006 1124 1006 981 1006 c 3,30,31
 904 1006 904 1006 783 932 c 1,32,33
 891 797 891 797 891 581.5 c 131,-1,34
 891 366 891 366 795 256 c 1,35,36
 917 160 917 160 981 160 c 3,37,38
 1099 160 1099 160 1224 220 c 1,39,-1
 1224 42 l 1,40,41
 1129 2 1129 2 989 0 c 0,42,43
 987 0 987 0 985 0 c 0,44,45
 846 0 846 0 650 132 c 1,46,47
 447 2 447 2 282 0 c 0,48,49
 275 0 275 0 268 0 c 0,50,51
 115 0 115 0 69 42 c 1,52,-1
 69 220 l 1,6,7
EndSplineSet
Validated: 1
EndChar

StartChar: y
Encoding: 121 121 59
Width: 1396
GlyphClass: 2
Flags: W
HStem: 0 21G<28 299.687> 0 21G<28 299.687> 1208 20G<28 298.911 1097.09 1368> 1208 20G<28 298.911 1097.09 1368>
LayerCount: 2
Fore
SplineSet
28 1228 m 1,0,-1
 282 1228 l 1,1,-1
 698 736 l 1,2,-1
 1114 1228 l 1,3,-1
 1368 1228 l 1,4,-1
 282 0 l 1,5,-1
 28 0 l 1,6,-1
 562 614 l 1,7,-1
 28 1228 l 1,0,-1
EndSplineSet
Validated: 1
EndChar

StartChar: z
Encoding: 122 122 60
Width: 1570
GlyphClass: 2
Flags: W
HStem: 0 21G<1427.74 1480> 0 21G<1427.74 1480> 1206 20G<1427.74 1480>
LayerCount: 2
Fore
SplineSet
1480 1226 m 1,0,-1
 1480 1007 l 1,1,-1
 443 613 l 1,2,-1
 1480 221 l 1,3,-1
 1480 0 l 1,4,-1
 90 532 l 1,5,-1
 90 694 l 1,6,-1
 1480 1226 l 1,0,-1
EndSplineSet
Validated: 1
EndChar

StartChar: braceleft
Encoding: 123 123 61
Width: 506
GlyphClass: 2
Flags: W
HStem: 0 21G<166 452> 0 21G<166 452> 615 79<54 147.492>
VStem: 166 286<0 591.171 715.549 1308>
LayerCount: 2
Fore
SplineSet
166 474 m 2,0,1
 166 566 166 566 148 592 c 0,2,3
 132 615 132 615 84 615 c 2,4,-1
 54 615 l 1,5,-1
 54 694 l 1,6,-1
 84 694 l 2,7,8
 130 694 130 694 150 715 c 0,9,10
 166 732 166 732 166 820 c 2,11,-1
 166 1308 l 1,12,-1
 452 1308 l 1,13,-1
 452 820 l 2,14,15
 452 722 452 722 432 694 c 2,16,-1
 404 655 l 1,17,-1
 433 615 l 2,18,19
 452 589 452 589 452 474 c 2,20,-1
 452 0 l 1,21,-1
 166 0 l 1,22,-1
 166 474 l 2,0,1
EndSplineSet
Validated: 1
EndChar

StartChar: braceright
Encoding: 125 125 62
Width: 530
GlyphClass: 2
Flags: W
HStem: 0 21G<66 352> 0 21G<66 352> 615 79<370.508 464>
VStem: 66 286<0 591.171 715.549 1308>
LayerCount: 2
Fore
SplineSet
352 474 m 2,0,1
 352 0 l 1,2,-1
 66 0 l 1,3,-1
 66 474 l 2,4,5
 66 589 66 589 85 615 c 2,6,-1
 114 655 l 1,7,-1
 86 694 l 2,8,9
 66 722 66 722 66 820 c 2,10,-1
 66 1308 l 1,11,-1
 352 1308 l 1,12,-1
 352 820 l 2,13,14
 352 732 352 732 368 715 c 0,15,16
 388 694 388 694 434 694 c 2,17,-1
 464 694 l 1,18,-1
 464 615 l 1,19,-1
 434 615 l 2,20,21
 386 615 386 615 370 592 c 0,22,23
 352 566 352 566 352 474 c 2,0,1
EndSplineSet
Validated: 1
EndChar

StartChar: asciitilde
Encoding: 126 126 63
Width: 1180
GlyphClass: 2
Flags: W
HStem: 452 202<656.512 1052.59> 574 204<128.762 545.944>
LayerCount: 2
Fore
SplineSet
837 452 m 3,0,1
 733 452 733 452 622 503 c 1,2,3
 434 574 434 574 323 574 c 3,4,5
 203 574 203 574 58 497 c 1,6,-1
 58 705 l 1,7,8
 191 778 191 778 323 778 c 3,9,10
 471 778 471 778 617 717 c 1,11,12
 746 654 746 654 842 654 c 0,13,14
 982 656 982 656 1122 731 c 1,15,-1
 1122 524 l 1,16,17
 986 452 986 452 837 452 c 3,0,1
EndSplineSet
Validated: 1
EndChar
